<?xml version="1.0" standalone="no"?><!DOCTYPE svg PUBLIC "-//W3C//DTD SVG 1.1//EN" "http://www.w3.org/Graphics/SVG/1.1/DTD/svg11.dtd"><svg class="icon" width="200px" height="188.41px" viewBox="0 0 1087 1024" version="1.1" xmlns="http://www.w3.org/2000/svg"><path  d="M1087.584086 750.605835s-5.301959-9.92418-11.351631-22.023522l-159.194722-317.777681a43.707176 43.707176 0 0 0-35.686264-22.023522h-131.665319a24.742476 24.742476 0 0 0-24.674502 24.674502v42.143778a24.742476 24.742476 0 0 0 24.606528 24.674502h41.871883a43.571228 43.571228 0 0 1 35.550316 22.091497l112.632645 227.5764a14.070584 14.070584 0 0 1-13.594767 22.091497h-178.975109a24.742476 24.742476 0 0 0-24.606528 24.606528v129.150288a24.742476 24.742476 0 0 1-24.606529 24.606528H387.861424a24.742476 24.742476 0 0 1-24.606528-24.606528v-129.150288a24.742476 24.742476 0 0 0-24.606529-24.606528H156.342541a13.594767 13.594767 0 0 1-13.594767-21.887575l117.798657-228.596008a44.522862 44.522862 0 0 1 35.958159-21.887575h40.784301a24.674502 24.674502 0 0 0 24.606528-24.606529v-41.464039a24.674502 24.674502 0 0 0-24.674502-24.606529H206.167362a44.250967 44.250967 0 0 0-35.754237 22.023523L10.742586 728.786234c-6.049671 12.099343-10.875814 22.023523-10.739866 22.023523s0 11.079735 0 24.606528V999.390073a24.742476 24.742476 0 0 0 24.606528 24.606528h1037.960466A24.742476 24.742476 0 0 0 1087.584086 999.390073v-224.313657-24.606528zM318.120269 279.343235h135.267933V658.841158h181.082297V279.343235h142.745054c13.594767 0 17.265354-8.292808 8.292808-18.42091L560.786862 7.719788a21.071889 21.071889 0 0 0-32.491494 0L309.62354 260.786378c-8.836599 10.264049-5.030064 18.692805 8.496729 18.692804z m0 0" /></svg>